<?xml version="1.0" encoding="UTF-8" standalone="no"?>
<svg
   xmlns:dc="http://purl.org/dc/elements/1.1/"
   xmlns:cc="http://creativecommons.org/ns#"
   xmlns:rdf="http://www.w3.org/1999/02/22-rdf-syntax-ns#"
   xmlns:svg="http://www.w3.org/2000/svg"
   xmlns="http://www.w3.org/2000/svg"
   xmlns:sodipodi="http://sodipodi.sourceforge.net/DTD/sodipodi-0.dtd"
   xmlns:inkscape="http://www.inkscape.org/namespaces/inkscape"
   viewBox="0 0 30 28"
   version="1.1"
   id="svg8026"
   sodipodi:docname="comments.svg"
   width="30"
   height="28"
   inkscape:version="0.92.4 (5da689c313, 2019-01-14)">
  <metadata
     id="metadata8032">
    <rdf:RDF>
      <cc:Work
         rdf:about="">
        <dc:format>image/svg+xml</dc:format>
        <dc:type
           rdf:resource="http://purl.org/dc/dcmitype/StillImage" />
        <dc:title></dc:title>
      </cc:Work>
    </rdf:RDF>
  </metadata>
  <defs
     id="defs8030" />
  <sodipodi:namedview
     pagecolor="#ffffff"
     bordercolor="#666666"
     borderopacity="1"
     objecttolerance="10"
     gridtolerance="10"
     guidetolerance="10"
     inkscape:pageopacity="0"
     inkscape:pageshadow="2"
     inkscape:window-width="1366"
     inkscape:window-height="705"
     id="namedview8028"
     showgrid="false"
     inkscape:zoom="22.333333"
     inkscape:cx="12.416066"
     inkscape:cy="10.054963"
     inkscape:window-x="-8"
     inkscape:window-y="-8"
     inkscape:window-maximized="1"
     inkscape:current-layer="svg8026" />
  <path
     d="M 21.666666,10.571428 C 21.666666,5.835714 16.817708,2 10.833333,2 4.8489582,2 0,5.835714 0,10.571428 0,12.408928 0.73437499,14.101785 1.9791666,15.5 1.28125,17.117857 0.13020833,18.403571 0.11458333,18.419643 0,18.542857 -0.03125,18.725 0.03645833,18.885714 0.10416667,19.046428 0.25,19.142857 0.41666666,19.142857 c 1.90624994,0 3.48437494,-0.658929 4.61979164,-1.339286 1.6770835,0.841072 3.6614585,1.339286 5.7968747,1.339286 5.984375,0 10.833333,-3.835714 10.833333,-8.571429 z m 6.354167,11.785715 C 29.265624,20.964286 30,19.266071 30,17.428571 30,13.844643 27.213541,10.775 23.265625,9.494643 c 0.04688,0.353571 0.06771,0.7125 0.06771,1.076785 0,5.673215 -5.609375,10.285715 -12.5,10.285715 -0.5625,0 -1.1093748,-0.04286 -1.6510416,-0.101786 C 10.822916,23.835714 14.677083,26 19.166666,26 21.302083,26 23.286458,25.507143 24.963541,24.660714 26.098958,25.341071 27.677083,26 29.583333,26 c 0.166667,0 0.317708,-0.101786 0.380208,-0.257143 0.06771,-0.155357 0.03646,-0.3375 -0.07813,-0.466072 -0.01562,-0.01607 -1.166666,-1.296428 -1.864583,-2.919642 z"
     id="path8024"
     inkscape:connector-curvature="0"
     style="fill:#00897b;fill-opacity:1;stroke-width:1" />
</svg>
