<?xml version="1.0" encoding="UTF-8" standalone="no"?>
<svg
   xmlns:dc="http://purl.org/dc/elements/1.1/"
   xmlns:cc="http://creativecommons.org/ns#"
   xmlns:rdf="http://www.w3.org/1999/02/22-rdf-syntax-ns#"
   xmlns:svg="http://www.w3.org/2000/svg"
   xmlns="http://www.w3.org/2000/svg"
   xmlns:sodipodi="http://sodipodi.sourceforge.net/DTD/sodipodi-0.dtd"
   xmlns:inkscape="http://www.inkscape.org/namespaces/inkscape"
   viewBox="0 0 30 28"
   version="1.1"
   id="svg847"
   sodipodi:docname="dribbble-w.svg"
   width="30"
   height="28"
   inkscape:version="0.92.4 (5da689c313, 2019-01-14)">
  <metadata
     id="metadata853">
    <rdf:RDF>
      <cc:Work
         rdf:about="">
        <dc:format>image/svg+xml</dc:format>
        <dc:type
           rdf:resource="http://purl.org/dc/dcmitype/StillImage" />
        <dc:title></dc:title>
      </cc:Work>
    </rdf:RDF>
  </metadata>
  <defs
     id="defs851" />
  <sodipodi:namedview
     pagecolor="#ffffff"
     bordercolor="#666666"
     borderopacity="1"
     objecttolerance="10"
     gridtolerance="10"
     guidetolerance="10"
     inkscape:pageopacity="0"
     inkscape:pageshadow="2"
     inkscape:window-width="1366"
     inkscape:window-height="705"
     id="namedview849"
     showgrid="false"
     inkscape:zoom="16.75"
     inkscape:cx="9.5944317"
     inkscape:cy="13.02572"
     inkscape:window-x="-8"
     inkscape:window-y="-8"
     inkscape:window-maximized="1"
     inkscape:current-layer="svg847" />
  <path
     d="M 15,0.99999955 C 7.8317584,0.99999955 2,7.0560596 2,14.5 2,21.94395 7.8317584,28 15,28 22.168242,28 28,21.94395 28,14.5 28,7.0560596 22.168242,0.99999955 15,0.99999955 Z m 8.595202,6.22557005 c 1.546528,1.96218 2.483052,4.4613704 2.507479,7.1830404 -0.366097,-0.0804 -4.037233,-0.85366 -7.73196,-0.37115 -0.301516,-0.76432 -0.5861,-1.43671 -0.975891,-2.26527 4.105537,-1.74069 5.966267,-4.2177704 6.200372,-4.5466204 z m -1.234424,-1.33345 c -0.199717,0.29542 -1.871214,2.62847 -5.819649,4.1653504 -1.819581,-3.4716804 -3.83631,-6.3236604 -4.143226,-6.7504404 3.521323,-0.88147 7.232088,0.0691 9.962875,2.58509 z m -12.081612,-1.80998 c 0.292762,0.41692 2.276991,3.27244 4.116858,6.6688404 C 9.2019476,12.18334 4.6271532,12.16271 4.1305322,12.1559 4.8505642,8.5776896 7.1726374,5.6037796 10.279166,4.0821396 Z M 3.896008,14.51759 c 0,-0.11791 0.00225,-0.23527 0.00566,-0.35237 0.4858232,0.0104 5.8667746,0.0824 11.412008,-1.64101 0.317871,0.64604 0.621536,1.30183 0.90025,1.9569 -4.01527,1.17445 -7.6633945,4.54684 -9.4633186,7.7465 C 4.9771052,20.18334 3.896008,17.47926 3.896008,14.51759 Z m 4.2882705,9.09687 c 1.1598831,-2.46228 4.3077175,-5.64071 8.7843825,-7.22663 1.558951,4.20693 2.203657,7.73272 2.368778,8.7444 -3.570387,1.57934 -7.863689,1.14603 -11.1531605,-1.51777 z m 13.0199185,0.4621 c -0.113803,-0.70145 -0.704831,-4.07705 -2.157161,-8.22155 3.479597,-0.57843 6.536694,0.36842 6.916577,0.49291 -0.494944,3.20849 -2.268343,5.97941 -4.759416,7.72864 z"
     id="path845"
     inkscape:connector-curvature="0"
     style="fill:#ffffff;fill-opacity:1;stroke-width:0.99999994" />
</svg>
