<?xml version="1.0" encoding="UTF-8" standalone="no"?>
<svg
   xmlns:dc="http://purl.org/dc/elements/1.1/"
   xmlns:cc="http://creativecommons.org/ns#"
   xmlns:rdf="http://www.w3.org/1999/02/22-rdf-syntax-ns#"
   xmlns:svg="http://www.w3.org/2000/svg"
   xmlns="http://www.w3.org/2000/svg"
   xmlns:sodipodi="http://sodipodi.sourceforge.net/DTD/sodipodi-0.dtd"
   xmlns:inkscape="http://www.inkscape.org/namespaces/inkscape"
   viewBox="0 0 19 19"
   version="1.1"
   id="svg6747"
   sodipodi:docname="search.svg"
   width="19"
   height="19"
   inkscape:version="0.92.4 (5da689c313, 2019-01-14)">
  <metadata
     id="metadata6753">
    <rdf:RDF>
      <cc:Work
         rdf:about="">
        <dc:format>image/svg+xml</dc:format>
        <dc:type
           rdf:resource="http://purl.org/dc/dcmitype/StillImage" />
        <dc:title></dc:title>
      </cc:Work>
    </rdf:RDF>
  </metadata>
  <defs
     id="defs6751" />
  <sodipodi:namedview
     pagecolor="#ffffff"
     bordercolor="#666666"
     borderopacity="1"
     objecttolerance="10"
     gridtolerance="10"
     guidetolerance="10"
     inkscape:pageopacity="0"
     inkscape:pageshadow="2"
     inkscape:window-width="1366"
     inkscape:window-height="705"
     id="namedview6749"
     showgrid="false"
     inkscape:zoom="28.210526"
     inkscape:cx="11.553935"
     inkscape:cy="9.45"
     inkscape:window-x="-8"
     inkscape:window-y="-8"
     inkscape:window-maximized="1"
     inkscape:current-layer="svg6747" />
  <path
     d="M 18.741606,16.42672 15.041531,12.72727 C 14.874527,12.5603 14.648143,12.46753 14.410626,12.46753 H 13.805698 C 14.829992,11.1577 15.43863,9.5102 15.43863,7.718 15.43863,3.45455 11.983495,0 7.7193152,0 3.4551358,0 0,3.45455 0,7.718 c 0,4.26345 3.4551358,7.71799 7.7193152,7.71799 1.7925141,0 3.4402908,-0.60853 4.7503478,-1.63265 v 0.60482 c 0,0.23748 0.09278,0.46382 0.259785,0.6308 l 3.700075,3.69944 c 0.348854,0.3488 0.912958,0.3488 1.2581,0 l 1.050272,-1.05009 c 0.348854,-0.34879 0.348854,-0.9128 0.0037,-1.26159 z M 7.7193152,12.46753 c -2.6238249,0 -4.7503478,-2.12245 -4.7503478,-4.74953 0,-2.62338 2.1228116,-4.74954 4.7503478,-4.74954 2.6238248,0 4.7503478,2.12245 4.7503478,4.74954 0,2.62337 -2.122811,4.74953 -4.7503478,4.74953 z"
     id="path6745"
     inkscape:connector-curvature="0"
     style="stroke-width:1;fill:#212121;fill-opacity:1" />
</svg>
