<svg xmlns="http://www.w3.org/2000/svg" width="124" height="24" version="1.1" id="svg837"><defs id="defs832"><style id="style830"></style></defs><g id="g851"><g id="g855"><g aria-label="Your Logo" id="Your_Logo" font-weight="700" font-size="25" font-family="Open Sans" text-anchor="middle" fill="#212121"><path d="M7.925 7.275l3.723-7.349h4.077l-5.92 10.901v6.946h-3.76v-6.824L.125-.074h4.1z" id="path857"/><path d="M20.669 10.925q0 2.026.659 3.064.671 1.037 2.173 1.037 1.489 0 2.136-1.025.66-1.038.66-3.076 0-2.027-.66-3.04t-2.16-1.013q-1.49 0-2.15 1.013-.658 1.001-.658 3.04zm9.436 0q0 3.332-1.758 5.212t-4.895 1.88q-1.965 0-3.467-.854-1.501-.867-2.307-2.478-.806-1.612-.806-3.76 0-3.345 1.746-5.2 1.746-1.856 4.907-1.856 1.966 0 3.467.855 1.501.854 2.307 2.453.806 1.6.806 3.748z" id="path859"/><path d="M42.849 17.773l-.5-1.746h-.196q-.598.953-1.697 1.477-1.098.513-2.502.513-2.405 0-3.626-1.282-1.22-1.294-1.22-3.71v-8.9h3.723v7.972q0 1.477.525 2.221.525.733 1.672.733 1.563 0 2.258-1.038.696-1.05.696-3.467v-6.42h3.723v13.647z" id="path861"/><path d="M57.253 3.87q.757 0 1.258.11l-.281 3.49q-.452-.122-1.099-.122-1.782 0-2.783.916-.989.915-.989 2.563v6.946h-3.723V4.126h2.82l.55 2.294h.182q.635-1.147 1.71-1.843 1.086-.708 2.355-.708z" id="path863"/><path d="M67.8 17.773V-.074h3.784v14.722h7.239v3.125z" id="path865"/><path d="M84.585 10.925q0 2.026.659 3.064.671 1.037 2.173 1.037 1.49 0 2.136-1.025.66-1.038.66-3.076 0-2.027-.66-3.04t-2.16-1.013q-1.49 0-2.15 1.013-.658 1.001-.658 3.04zm9.436 0q0 3.332-1.758 5.212t-4.895 1.88q-1.965 0-3.467-.854-1.501-.867-2.307-2.478-.806-1.612-.806-3.76 0-3.345 1.746-5.2 1.746-1.856 4.907-1.856 1.966 0 3.467.855 1.501.854 2.307 2.453.806 1.6.806 3.748z" id="path867"/><path d="M108.974 4.126v1.892l-2.136.549q.586.915.586 2.05 0 2.198-1.538 3.43-1.526 1.222-4.248 1.222l-.671-.037-.55-.061q-.573.44-.573.977 0 .805 2.05.805h2.32q2.246 0 3.418.965 1.184.964 1.184 2.832 0 2.392-2.002 3.71-1.99 1.319-5.725 1.319-2.857 0-4.37-1.001-1.502-.989-1.502-2.783 0-1.233.77-2.063.768-.83 2.257-1.184-.573-.245-1-.794-.428-.561-.428-1.184 0-.781.452-1.294.452-.525 1.306-1.025-1.074-.464-1.709-1.49-.623-1.025-.623-2.417 0-2.233 1.453-3.454 1.453-1.22 4.15-1.22.574 0 1.355.11.794.097 1.014.146zM98.44 19.702q0 .769.732 1.208.745.44 2.075.44 2.002 0 3.138-.55 1.135-.549 1.135-1.501 0-.77-.672-1.062-.671-.293-2.075-.293h-1.928q-1.026 0-1.722.476-.683.488-.683 1.282zm1.355-11.109q0 1.111.5 1.758.513.647 1.55.647 1.05 0 1.539-.647.488-.647.488-1.758 0-2.466-2.026-2.466-2.051 0-2.051 2.466z" id="path869"/><path d="M114.175 10.925q0 2.026.659 3.064.671 1.037 2.173 1.037 1.489 0 2.136-1.025.66-1.038.66-3.076 0-2.027-.66-3.04t-2.16-1.013q-1.49 0-2.15 1.013-.658 1.001-.658 3.04zm9.436 0q0 3.332-1.758 5.212t-4.895 1.88q-1.966 0-3.467-.854-1.501-.867-2.307-2.478-.806-1.612-.806-3.76 0-3.345 1.746-5.2 1.745-1.856 4.907-1.856 1.965 0 3.467.855 1.501.854 2.307 2.453.806 1.6.806 3.748z" id="path871"/></g></g></g></svg>